<svg id="圖層_1" data-name="圖層 1" xmlns="http://www.w3.org/2000/svg" viewBox="0 0 956 938"><defs><style>.cls-1{opacity:0.9;}</style></defs><g class="cls-1"><path d="M414.18,931.49a7.94,7.94,0,0,1-2.11-5.5l3.15.44a5.21,5.21,0,0,0,1.61,3.46,6.62,6.62,0,0,0,3.66,1.55,6.07,6.07,0,0,0,5.5-1.63,9.43,9.43,0,0,0,2.45-5.62,9.56,9.56,0,0,0-.78-6.14,6.24,6.24,0,0,0-4.94-3,6.34,6.34,0,0,0-4,.62,6.62,6.62,0,0,0-2.75,3.43l-3.15-.44a9.49,9.49,0,0,1,4.14-5.33,9.24,9.24,0,0,1,6.15-1.13c3.48.48,5.94,2,7.39,4.42A14,14,0,0,1,428.23,932c-2.1,2-4.81,2.75-8.2,2.28A9.39,9.39,0,0,1,414.18,931.49Z"/><path d="M399,930.44l1.77-8.85-11-2.2L388,928.25l-3.21-.64,4.19-21,3.2.64-1.87,9.42,11,2.19,1.88-9.41,3.21.63-4.19,21Z"/><path d="M372.48,924.67l5.06-20.82,3.15.76-5.06,20.82Z"/><path d="M360.13,921.47,354,903.13l-.12,0-4.4,15.31-3.14-.91,5.92-20.58,3.05.88,6.19,18.54.11,0,4.46-15.47,3.14.9-5.92,20.58Z"/><path d="M322.76,908a8.17,8.17,0,0,1-.93-6l3.11,1.1a5,5,0,0,0,.79,3.71,6.82,6.82,0,0,0,3.48,2.41,6.19,6.19,0,0,0,5.38-.37,9.11,9.11,0,0,0,3.9-5.21,8.72,8.72,0,0,0,.3-6.19c-.69-1.83-2.31-3.2-4.82-4.08a11.73,11.73,0,0,0-2.93-.62,8.67,8.67,0,0,0-2.62.19l-1.54,4.39,5.57,2-.92,2.63-8.66-3,3-8.49a12.6,12.6,0,0,1,4.31-.61,17.4,17.4,0,0,1,5.08,1,10,10,0,0,1,6.42,5.69,11.33,11.33,0,0,1-.1,8.24,11.74,11.74,0,0,1-5.11,6.59,9.29,9.29,0,0,1-8.2.61A10.17,10.17,0,0,1,322.76,908Z"/><path d="M295.15,898.43,293.57,887l-9.67,6.38-3.58-1.62,13-8.22,3.53-7.78,2.95,1.33-3.53,7.79,2.42,15.23Z"/><path d="M270.76,886.88l9.62-19.14,2.89,1.46-9.62,19.13Z"/><path d="M233.66,866l10-15.74-10-6.31,1.5-2.36,12.69,8L236.4,867.71Z"/><path d="M214.55,853.41l12.13-17.66,2.67,1.83-12.13,17.67Z"/><path d="M204.15,846l.79-19.31-.1-.07-9.55,12.75-2.61-2,12.84-17.14,2.54,1.9-.8,19.53.1.07L217,828.92l2.61,2L206.79,848Z"/><path d="M171,803l1.75-2,11.32,10.07-1.75,2Z"/><path d="M140.18,789.92c-2.37-2.5-3.48-5-3.31-7.7.15-2.46,1.46-4.87,3.91-7.2s4.93-3.49,7.45-3.53,5.13,1.21,7.51,3.71l5.33,5.6-15.51,14.76Zm16.62-9.56-2.67-2.81c-1.86-1.95-3.73-2.95-5.53-3s-3.65.91-5.6,2.77-3,3.73-3.09,5.46.85,3.67,2.71,5.63l2.71,2.84Z"/><path d="M117.24,764.21l2.12-1.81,7.88,9.21,4.74-4.05-7.41-8.67,2.12-1.81,7.41,8.67,5.18-4.43-8.21-9.6,2.12-1.81L143.52,762l-16.28,13.92Z"/><path d="M104.25,745.78a6.8,6.8,0,0,1,2.53-5.17l2,2.57a4.73,4.73,0,0,0-1.35,3.16,5.94,5.94,0,0,0,1.49,3.47,6.69,6.69,0,0,0,2.48,2.19,2.43,2.43,0,0,0,2.69-.34,2.51,2.51,0,0,0,.84-2.65,24,24,0,0,0-1.22-3.75,32.45,32.45,0,0,1-1.76-5.73,5.18,5.18,0,0,1,2-5,5.33,5.33,0,0,1,5-1,10.73,10.73,0,0,1,5.13,4,10.56,10.56,0,0,1,2.49,5.81c.09,2.17-.9,4.13-2.93,5.92l-2-2.57a5.25,5.25,0,0,0,1.79-3.63,6.63,6.63,0,0,0-1.65-3.77,7.88,7.88,0,0,0-3-2.56A2.5,2.5,0,0,0,116,737a3.14,3.14,0,0,0-1,3.34,39.75,39.75,0,0,0,1.45,4.26,37.84,37.84,0,0,1,1.6,5,4.73,4.73,0,0,1-1.9,4.57,5.07,5.07,0,0,1-5,.83,9.78,9.78,0,0,1-4.67-3.56A9.38,9.38,0,0,1,104.25,745.78Z"/><path d="M94.82,734.74l17.48-12.39,1.87,2.65L96.7,737.38Z"/><path d="M82.05,713a8.14,8.14,0,0,1,3-5.33l1.79,2.77a5,5,0,0,0-1.65,3.42,6.83,6.83,0,0,0,1.29,4,6.14,6.14,0,0,0,4.47,3,9.08,9.08,0,0,0,6.28-1.74,8.79,8.79,0,0,0,4-4.71c.58-1.87.13-3.94-1.32-6.18A12.1,12.1,0,0,0,97.94,706a8.81,8.81,0,0,0-2.19-1.44l-3.9,2.53,3.21,5-2.34,1.51-5-7.7L95.29,701a12.38,12.38,0,0,1,3.79,2.16,17.18,17.18,0,0,1,3.39,3.91,10,10,0,0,1,1.6,8.43A11.42,11.42,0,0,1,99,721.91,11.75,11.75,0,0,1,90.87,724,9.28,9.28,0,0,1,84,719.46,10.19,10.19,0,0,1,82.05,713Z"/><path d="M72.77,700.45,80.63,696l-5.54-9.76-7.85,4.45-1.62-2.84,18.63-10.57,1.62,2.84-8.35,4.74,5.53,9.76,8.35-4.74L93,692.72,74.39,703.3Z"/><path d="M50.77,657.86q-3.18-7,2.73-9.67t9.19,4.28l2.31,5L72.58,654l1.36,3-19.47,8.92Zm11.69.81-2.22-4.85A5.69,5.69,0,0,0,58,651a3.56,3.56,0,0,0-3.09.19,3.27,3.27,0,0,0-2.09,2.21,5.62,5.62,0,0,0,.65,3.56l2.22,4.86Z"/><path d="M40.57,626.13A11.51,11.51,0,0,1,47,620.71a11.56,11.56,0,0,1,8.38-.39A11,11,0,0,1,61,634.69a11.49,11.49,0,0,1-6.4,5.38,11.57,11.57,0,0,1-8.38.41,9.6,9.6,0,0,1-5.8-6A9.81,9.81,0,0,1,40.57,626.13Zm6.62,11.39a9.1,9.1,0,0,0,6.22-.5,9.07,9.07,0,0,0,4.87-3.84,7.35,7.35,0,0,0-3.8-9.88,9.15,9.15,0,0,0-6.26.48,9.27,9.27,0,0,0-5,3.92,7.3,7.3,0,0,0,3.94,9.82Z"/><path d="M29.6,602.6l2.65-.87,3.54,10.71,5.92-2-3.34-10.11,2.65-.88,3.34,10.11,9.11-3,1,3.1-20.34,6.73Z"/><path d="M25.32,577.41a11.49,11.49,0,0,1,7-4.71,11.56,11.56,0,0,1,8.38.52,11,11,0,0,1,4,14.89,11.54,11.54,0,0,1-6.94,4.66,11.58,11.58,0,0,1-8.37-.49,9.62,9.62,0,0,1-5.13-6.6A9.77,9.77,0,0,1,25.32,577.41Zm5.36,12a9.16,9.16,0,0,0,6.23.17,9.07,9.07,0,0,0,5.26-3.3,6.55,6.55,0,0,0,.8-5.72,6.47,6.47,0,0,0-3.53-4.51,9.12,9.12,0,0,0-6.27-.19,9.21,9.21,0,0,0-5.36,3.36,7.31,7.31,0,0,0,2.87,10.19Z"/><path d="M18,557.76a8.13,8.13,0,0,1,.37-5.35,5.64,5.64,0,0,1,4.14-2.91,5.16,5.16,0,0,1,3.12.26A4.85,4.85,0,0,1,28,552.1h.06a3.9,3.9,0,0,1,3-3.93l3.27-1.06a5.21,5.21,0,0,0,2.82-1.89l.73,3.46a5.47,5.47,0,0,1-2.56,1.5l-2.56.82a3.7,3.7,0,0,0-2.29,1.65,4.31,4.31,0,0,0-.17,2.92l1.2,5.66,8.66-1.83.68,3.19L20,567Zm10.86,4-1.2-5.66a5,5,0,0,0-1.58-3,3.29,3.29,0,0,0-2.78-.48,3.19,3.19,0,0,0-2.34,1.54,5.17,5.17,0,0,0-.13,3.4L22,563.25Z"/><path d="M14.32,538.31l18.39-3-1.89-11.63,2.76-.45L36,538.08l-21.14,3.43Z"/><path d="M11.07,515.63,32.33,513l.4,3.21-21.27,2.61Z"/><path d="M11.33,488.89a11.54,11.54,0,0,1,7.74-3.33,11.56,11.56,0,0,1,8.14,2.06A11,11,0,0,1,28.41,503a11.45,11.45,0,0,1-7.68,3.29,11.51,11.51,0,0,1-8.14-2,9.62,9.62,0,0,1-3.81-7.43A9.78,9.78,0,0,1,11.33,488.89Zm3.05,12.82A9.13,9.13,0,0,0,20.47,503a9.15,9.15,0,0,0,5.78-2.27,6.6,6.6,0,0,0,1.85-5.48,6.52,6.52,0,0,0-2.64-5.08,9.08,9.08,0,0,0-6.12-1.35,9.34,9.34,0,0,0-5.9,2.31,7.32,7.32,0,0,0,.94,10.55Z"/></g></svg>