<svg id="圖層_1" data-name="圖層 1" xmlns="http://www.w3.org/2000/svg" viewBox="0 0 956 938"><defs><style>.cls-1{opacity:0.9;}</style></defs><g class="cls-1"><path d="M415,930.91a8,8,0,0,1-2.11-5.51l3.15.44a5.21,5.21,0,0,0,1.61,3.47,6.57,6.57,0,0,0,3.66,1.54,6.06,6.06,0,0,0,5.5-1.62,9.43,9.43,0,0,0,2.45-5.63,9.65,9.65,0,0,0-.77-6.14,6.26,6.26,0,0,0-4.95-3,6.34,6.34,0,0,0-4,.62,6.67,6.67,0,0,0-2.75,3.43l-3.15-.44a9.45,9.45,0,0,1,4.14-5.33,9.22,9.22,0,0,1,6.16-1.14c3.47.49,5.93,2,7.38,4.43a14,14,0,0,1-2.24,15.35c-2.1,2-4.81,2.75-8.2,2.28A9.52,9.52,0,0,1,415,930.91Z"/><path d="M399.87,929.86l1.76-8.85-11-2.2-1.77,8.86-3.21-.64,4.19-21,3.21.64-1.88,9.42,11,2.19,1.87-9.42,3.21.64-4.19,21Z"/><path d="M373.32,924.08l5.06-20.81,3.15.76-5.06,20.82Z"/><path d="M361,920.88l-6.12-18.33-.11,0-4.41,15.3-3.14-.9,5.92-20.58,3.06.88,6.18,18.54.11,0,4.46-15.48,3.14.91-5.92,20.58Z"/><path d="M323.61,907.4a8.1,8.1,0,0,1-.94-6l3.11,1.1a5,5,0,0,0,.8,3.71,6.67,6.67,0,0,0,3.48,2.4,6.13,6.13,0,0,0,5.37-.36,9.06,9.06,0,0,0,3.9-5.21,8.79,8.79,0,0,0,.31-6.19c-.69-1.84-2.31-3.2-4.83-4.09a12.69,12.69,0,0,0-2.93-.62,8.58,8.58,0,0,0-2.61.2l-1.55,4.39,5.58,2-.93,2.63-8.66-3,3-8.49a12.66,12.66,0,0,1,4.32-.61,17.4,17.4,0,0,1,5.07,1,10,10,0,0,1,6.43,5.69,11.41,11.41,0,0,1-.1,8.23,11.82,11.82,0,0,1-5.12,6.6,9.32,9.32,0,0,1-8.2.61A10.16,10.16,0,0,1,323.61,907.4Z"/><path d="M296,897.85l-1.58-11.48-9.68,6.38-3.58-1.62,13-8.22,3.53-7.79,2.95,1.34-3.53,7.79,2.42,15.23Z"/><path d="M271.6,886.3l9.62-19.14,2.9,1.45-9.63,19.14Z"/><path d="M234.5,865.4l10-15.74-10-6.31L236,841l12.7,8-11.47,18.09Z"/><path d="M215.39,852.83l12.13-17.66,2.67,1.83-12.13,17.67Z"/><path d="M205,845.46l.79-19.31-.1-.07-9.55,12.74-2.61-2,12.84-17.14,2.54,1.91-.8,19.53.1.07,9.66-12.89,2.61,2-12.84,17.14Z"/><path d="M171.85,802.39l1.75-2,11.32,10.07-1.75,2Z"/><path d="M141,789.33c-2.38-2.49-3.49-5-3.31-7.69.14-2.46,1.45-4.87,3.91-7.2s4.92-3.49,7.45-3.53,5.12,1.21,7.5,3.7l5.33,5.61L146.4,795Zm16.61-9.56L155,777c-1.86-2-3.72-3-5.53-3s-3.65.91-5.6,2.77-3,3.72-3.08,5.46.84,3.67,2.7,5.63l2.71,2.84Z"/><path d="M118.08,763.63l2.12-1.81,7.88,9.21,4.74-4-7.4-8.67,2.12-1.81,7.4,8.67,5.18-4.43-8.21-9.6,2.12-1.82,10.34,12.09-16.29,13.92Z"/><path d="M105.09,745.2a6.79,6.79,0,0,1,2.54-5.17l2,2.57a4.73,4.73,0,0,0-1.35,3.16,5.94,5.94,0,0,0,1.49,3.47,6.64,6.64,0,0,0,2.48,2.18,2.41,2.41,0,0,0,2.69-.33,2.51,2.51,0,0,0,.84-2.65,23.59,23.59,0,0,0-1.22-3.76,32.69,32.69,0,0,1-1.76-5.72,5.18,5.18,0,0,1,2-5,5.34,5.34,0,0,1,5-1,13,13,0,0,1,7.62,9.81c.08,2.17-.91,4.14-2.94,5.93l-2-2.57a5.29,5.29,0,0,0,1.78-3.64,6.54,6.54,0,0,0-1.65-3.76,7.81,7.81,0,0,0-3-2.56,2.5,2.5,0,0,0-2.66.23,3.14,3.14,0,0,0-1,3.34,39.38,39.38,0,0,0,1.46,4.25,37.6,37.6,0,0,1,1.59,5,4.72,4.72,0,0,1-1.9,4.57,5.07,5.07,0,0,1-5,.83,9.89,9.89,0,0,1-4.67-3.56A9.4,9.4,0,0,1,105.09,745.2Z"/><path d="M95.67,734.16l17.47-12.39,1.87,2.65L97.54,736.8Z"/><path d="M82.89,712.43a8.18,8.18,0,0,1,3-5.33l1.79,2.77A5,5,0,0,0,86,713.29a6.77,6.77,0,0,0,1.28,4,6.2,6.2,0,0,0,4.48,3A9.12,9.12,0,0,0,98,718.58a8.78,8.78,0,0,0,4-4.71c.58-1.87.13-3.94-1.32-6.19a11.73,11.73,0,0,0-1.94-2.28A8.76,8.76,0,0,0,96.6,704l-3.91,2.52,3.21,5L93.56,713l-5-7.7,7.55-4.89a12.55,12.55,0,0,1,3.79,2.15,17.46,17.46,0,0,1,3.39,3.92,10,10,0,0,1,1.6,8.43,11.42,11.42,0,0,1-5.12,6.46,11.75,11.75,0,0,1-8.08,2.08,9.31,9.31,0,0,1-6.86-4.53A10.19,10.19,0,0,1,82.89,712.43Z"/><path d="M73.6,699.84l8.45-17.39-.06-.1-13.85,7.86-1.62-2.84L85.16,676.8l1.56,2.76-8.54,17.58.06.11,14-8,1.61,2.85L75.23,702.71Z"/><path d="M51.65,657.36q-3.18-7,2.73-9.67T63.57,652l2.31,5,7.58-3.47,1.37,3-19.48,8.92Zm11.69.81-2.22-4.85a5.67,5.67,0,0,0-2.29-2.85,3.57,3.57,0,0,0-3.08.19,3.29,3.29,0,0,0-2.09,2.22,5.53,5.53,0,0,0,.64,3.56l2.22,4.86Z"/><path d="M41.45,625.63a11.49,11.49,0,0,1,6.44-5.42,11.59,11.59,0,0,1,8.39-.39,11,11,0,0,1,5.6,14.37,11.56,11.56,0,0,1-6.4,5.38,11.57,11.57,0,0,1-8.38.41,9.6,9.6,0,0,1-5.8-6A9.78,9.78,0,0,1,41.45,625.63ZM48.07,637a9.07,9.07,0,0,0,6.21-.5,9.09,9.09,0,0,0,4.88-3.84,7.34,7.34,0,0,0-3.81-9.88,9.12,9.12,0,0,0-6.25.48,9.29,9.29,0,0,0-5,3.92,7.32,7.32,0,0,0,4,9.82Z"/><path d="M30.46,602.12l2.65-.88L36.66,612l5.92-2-3.35-10.11,2.65-.88,3.35,10.11,9.11-3,1,3.11L35,615.93Z"/><path d="M26.18,576.91a11.5,11.5,0,0,1,7-4.7,11.58,11.58,0,0,1,8.39.51,9.89,9.89,0,0,1,5.06,6.62,9.78,9.78,0,0,1-1,8.27,11.51,11.51,0,0,1-6.94,4.66,11.51,11.51,0,0,1-8.38-.49,9.62,9.62,0,0,1-5.12-6.59A9.8,9.8,0,0,1,26.18,576.91Zm5.36,12a9.19,9.19,0,0,0,6.24.17,9.2,9.2,0,0,0,5.26-3.3,6.61,6.61,0,0,0,.8-5.73,6.52,6.52,0,0,0-3.53-4.51,9.12,9.12,0,0,0-6.27-.19,9.37,9.37,0,0,0-5.37,3.36A7.34,7.34,0,0,0,31.54,589Z"/><path d="M18.85,557.27a8.23,8.23,0,0,1,.36-5.36,5.67,5.67,0,0,1,4.14-2.9,5.07,5.07,0,0,1,3.12.26,4.74,4.74,0,0,1,2.43,2.34l.06,0a3.9,3.9,0,0,1,3-3.92l3.27-1.06a5.19,5.19,0,0,0,2.82-1.89l.74,3.46a5.51,5.51,0,0,1-2.57,1.5l-2.55.82a3.7,3.7,0,0,0-2.29,1.65,4.36,4.36,0,0,0-.18,2.92l1.2,5.66,8.66-1.84.68,3.2-21,4.45Zm10.85,4-1.2-5.66a5,5,0,0,0-1.58-3,3.27,3.27,0,0,0-2.77-.48,3.17,3.17,0,0,0-2.34,1.53,5.26,5.26,0,0,0-.14,3.41l1.2,5.63Z"/><path d="M15.17,537.81l18.39-3-1.88-11.64,2.75-.44,2.41,14.83L15.69,541Z"/><path d="M11.92,515.14l21.27-2.61.39,3.21-21.26,2.61Z"/><path d="M12.18,488.38a11.49,11.49,0,0,1,7.74-3.33,11.57,11.57,0,0,1,8.14,2.05,11,11,0,0,1,1.2,15.38,11.54,11.54,0,0,1-7.68,3.29,11.51,11.51,0,0,1-8.14-2,9.61,9.61,0,0,1-3.81-7.43A9.77,9.77,0,0,1,12.18,488.38Zm3.05,12.81a9.13,9.13,0,0,0,6.09,1.32,9.1,9.1,0,0,0,5.78-2.27,7.35,7.35,0,0,0-.79-10.56,9.08,9.08,0,0,0-6.12-1.34,9.28,9.28,0,0,0-5.9,2.3,7.32,7.32,0,0,0,.94,10.55Z"/></g></svg>