<svg id="圖層_1" data-name="圖層 1" xmlns="http://www.w3.org/2000/svg" viewBox="0 0 616 355"><defs><style>.cls-1,.cls-2{isolation:isolate;}.cls-2{font-size:33px;font-family:HiraKakuStd-W8-83pv-RKSJ-H, Hiragino Kaku Gothic Std;}.cls-3{letter-spacing:-0.05em;}.cls-4{fill:none;stroke:#000;stroke-miterlimit:10;stroke-width:2px;}</style></defs><g id="BANNER" class="cls-1"><text class="cls-2" transform="translate(236.85 247.65)">BANNER</text></g><g id="WEB" class="cls-1"><text class="cls-2" transform="translate(319.85 85.65)">WEB</text></g><g id="JQUERY" class="cls-1"><text class="cls-2" transform="translate(34.85 192.65)">JQUE<tspan class="cls-3" x="105.24" y="0">R</tspan><tspan x="130.71" y="0">Y</tspan></text></g><g id="UI_UX" data-name="UI UX" class="cls-1"><text class="cls-2" transform="translate(236.85 169.65)">UI/UX</text></g><g id="CSS_SCSS" data-name="CSS SCSS" class="cls-1"><text class="cls-2" transform="translate(266.85 323.65)">CSS/SCSS</text></g><path d="M585.08,248a42.26,42.26,0,0,0,3.32,8.14,24.44,24.44,0,0,0,4.82,6.3,16,16,0,0,0,9.47,4.25c-.14.1-.19.16-.25.16A16.41,16.41,0,0,0,591.31,273a31.29,31.29,0,0,0-5.93,11.78c-.06.21-.12.43-.24.82-.11-.39-.18-.62-.25-.84a30.53,30.53,0,0,0-6.59-12.53,16.06,16.06,0,0,0-10.48-5.47,1.43,1.43,0,0,1-.29-.12l1-.15a16.92,16.92,0,0,0,11.12-7,32.08,32.08,0,0,0,5.26-11Z"/><path d="M616,285.79c-5.46,1.45-8.55,5.06-9.75,10.49-1.18-5.41-4.26-9-9.93-10.49,5.65-1.46,8.74-5.07,9.93-10.5C607.41,280.72,610.51,284.33,616,285.79Z"/><path d="M129,275.79c-5.46,1.45-8.55,5.06-9.75,10.49-1.18-5.41-4.26-9-9.93-10.49,5.65-1.46,8.74-5.07,9.93-10.5C120.41,270.72,123.51,274.33,129,275.79Z"/><path d="M109,20.32c-9.91,2.64-15.5,9.18-17.67,19-2.16-9.8-7.74-16.39-18-19,10.24-2.64,15.85-9.19,18-19C93.46,11.14,99.07,17.69,109,20.32Z"/><g id="HTML" class="cls-1"><text class="cls-2" transform="translate(410.85 192.65)">HTML</text></g><path class="cls-4" d="M216.71,199a47.12,47.12,0,0,1-42.24,26.45H49a47.14,47.14,0,0,1-47-47H2a47.14,47.14,0,0,1,47-47h125.5a46.65,46.65,0,0,1,15.91,2.79"/><path class="cls-4" d="M186.16,147.35A47.18,47.18,0,0,1,232.54,108H271"/><path class="cls-4" d="M385.47,117A47.14,47.14,0,0,1,405,155h0a47.14,47.14,0,0,1-47,47H232.54a46.75,46.75,0,0,1-31.12-11.85"/><rect class="cls-4" x="250.97" y="22.48" width="219.5" height="94" rx="47"/><path class="cls-4" d="M252,278.48a47.14,47.14,0,0,1-47-47h0a46.82,46.82,0,0,1,12.61-31.95"/><path class="cls-4" d="M264.85,278.48H252"/><path class="cls-4" d="M421.84,216a46.72,46.72,0,0,1,2.63,15.48h0a47.17,47.17,0,0,1-41.72,46.71"/><path class="cls-4" d="M399.73,133.48H520.47a47.14,47.14,0,0,1,47,47h0a47.14,47.14,0,0,1-47,47H424.3"/><path class="cls-4" d="M415.16,259.48h59.31a47.14,47.14,0,0,1,47,47h0a47.14,47.14,0,0,1-47,47H266a47.14,47.14,0,0,1-47-47h0A46.85,46.85,0,0,1,232.06,274"/></svg>